<svg width="169" height="174" viewBox="0 0 169 174" fill="none" xmlns="http://www.w3.org/2000/svg">
<g opacity="0.5">
<path d="M91.8853 174L91.8853 1" stroke="#E3C08D"/>
<path d="M83.6229 174L83.6229 1" stroke="#E3C08D"/>
<path d="M75.3607 174L75.3607 1" stroke="#E3C08D"/>
<path d="M67.0984 174L67.0984 1" stroke="#E3C08D"/>
<path d="M58.8361 174L58.8361 1" stroke="#E3C08D"/>
<path d="M50.5737 174L50.5737 1" stroke="#E3C08D"/>
<path d="M42.3115 174L42.3115 1" stroke="#E3C08D"/>
<path d="M34.0492 174L34.0492 1" stroke="#E3C08D"/>
<path d="M25.7869 174L25.7869 1" stroke="#E3C08D"/>
<path d="M17.5245 174L17.5245 1" stroke="#E3C08D"/>
<path d="M9.26233 174L9.26234 1" stroke="#E3C08D"/>
<path d="M1 174L1.00001 1" stroke="#E3C08D"/>
<path d="M169 1L91.8852 1" stroke="#E3C08D"/>
<path d="M169 9.3042L91.8852 9.3042" stroke="#E3C08D"/>
<path d="M169 17.6079L91.8852 17.6079" stroke="#E3C08D"/>
<path d="M169 25.9121L91.8852 25.9121" stroke="#E3C08D"/>
<path d="M169 34.2158L91.8852 34.2158" stroke="#E3C08D"/>
<path d="M169 42.52L91.8852 42.52" stroke="#E3C08D"/>
<path d="M169 50.8237L91.8852 50.8237" stroke="#E3C08D"/>
<path d="M169 59.1279L91.8852 59.1279" stroke="#E3C08D"/>
<path d="M169 67.4321L91.8852 67.4321" stroke="#E3C08D"/>
<path d="M169 75.7358L91.8852 75.7358" stroke="#E3C08D"/>
<path d="M169 84.04L91.8852 84.04" stroke="#E3C08D"/>
<path d="M169 92.3438L91.8852 92.3438" stroke="#E3C08D"/>
</g>
</svg>
