<svg width="18" height="18" viewBox="0 0 18 18" fill="none" xmlns="http://www.w3.org/2000/svg">
<path d="M16.6669 0.666504H1.33357C0.964817 0.666504 0.666901 0.964421 0.666901 1.33317V16.6665C0.666901 17.0353 0.964817 17.3332 1.33357 17.3332H16.6669C17.0356 17.3332 17.3336 17.0353 17.3336 16.6665V1.33317C17.3336 0.964421 17.0356 0.666504 16.6669 0.666504ZM14.7419 5.53109H13.4106C12.3669 5.53109 12.1648 6.02692 12.1648 6.75609V8.36234H14.6565L14.3315 10.8769H12.1648V17.3332H9.5669V10.879H7.39398V8.36234H9.5669V6.50817C9.5669 4.35609 10.8815 3.18317 12.8023 3.18317C13.7231 3.18317 14.5127 3.25192 14.744 3.28317V5.53109H14.7419Z" fill="#AAAAAA"/>
</svg>
