<svg width="18" height="18" viewBox="0 0 18 18" fill="none" xmlns="http://www.w3.org/2000/svg">
<path d="M8.99815 6.22088C7.46795 6.22088 6.21919 7.46964 6.21919 8.99984C6.21919 10.53 7.46795 11.7788 8.99815 11.7788C10.5283 11.7788 11.7771 10.53 11.7771 8.99984C11.7771 7.46964 10.5283 6.22088 8.99815 6.22088ZM17.3329 8.99984C17.3329 7.84906 17.3434 6.7087 17.2787 5.56001C17.2141 4.22578 16.9097 3.04164 15.9341 2.06599C14.9563 1.08824 13.7743 0.785954 12.4401 0.721327C11.2893 0.6567 10.1489 0.667124 9.00023 0.667124C7.84945 0.667124 6.7091 0.6567 5.56041 0.721327C4.22617 0.785954 3.04204 1.09033 2.06638 2.06599C1.08864 3.04373 0.786351 4.22578 0.721724 5.56001C0.657097 6.71079 0.667521 7.85114 0.667521 8.99984C0.667521 10.1485 0.657097 11.291 0.721724 12.4397C0.786351 13.7739 1.09072 14.958 2.06638 15.9337C3.04413 16.9114 4.22617 17.2137 5.56041 17.2783C6.71119 17.343 7.85154 17.3325 9.00023 17.3325C10.151 17.3325 11.2914 17.343 12.4401 17.2783C13.7743 17.2137 14.9584 16.9093 15.9341 15.9337C16.9118 14.9559 17.2141 13.7739 17.2787 12.4397C17.3455 11.291 17.3329 10.1506 17.3329 8.99984ZM8.99815 13.2756C6.63197 13.2756 4.72234 11.366 4.72234 8.99984C4.72234 6.63365 6.63197 4.72403 8.99815 4.72403C11.3643 4.72403 13.274 6.63365 13.274 8.99984C13.274 11.366 11.3643 13.2756 8.99815 13.2756ZM13.4491 5.5475C12.8966 5.5475 12.4505 5.10137 12.4505 4.54891C12.4505 3.99646 12.8966 3.55032 13.4491 3.55032C14.0015 3.55032 14.4477 3.99646 14.4477 4.54891C14.4478 4.6801 14.4221 4.81002 14.372 4.93125C14.3219 5.05248 14.2483 5.16263 14.1555 5.25539C14.0628 5.34815 13.9526 5.4217 13.8314 5.47183C13.7102 5.52195 13.5803 5.54767 13.4491 5.5475Z" fill="#AAAAAA"/>
</svg>
