<svg width="18" height="18" viewBox="0 0 18 18" fill="none" xmlns="http://www.w3.org/2000/svg">
<path d="M16.6669 0.666504H1.33357C0.964817 0.666504 0.666901 0.964421 0.666901 1.33317V16.6665C0.666901 17.0353 0.964817 17.3332 1.33357 17.3332H16.6669C17.0356 17.3332 17.3336 17.0353 17.3336 16.6665V1.33317C17.3336 0.964421 17.0356 0.666504 16.6669 0.666504ZM13.4856 6.70192C13.4919 6.79984 13.4919 6.90192 13.4919 7.00192C13.4919 10.0603 11.1627 13.5832 6.90648 13.5832C5.59398 13.5832 4.37732 13.2019 3.35232 12.5457C3.53982 12.5665 3.71898 12.5748 3.91065 12.5748C4.99398 12.5748 5.98982 12.2082 6.78357 11.5873C5.7669 11.5665 4.91273 10.8998 4.62107 9.98317C4.97732 10.0353 5.29815 10.0353 5.66482 9.9415C5.14133 9.83515 4.67081 9.55084 4.33318 9.13688C3.99556 8.72293 3.81166 8.20485 3.81273 7.67067V7.6415C4.11898 7.81442 4.4794 7.92067 4.85648 7.93525C4.53949 7.72399 4.27952 7.43777 4.09963 7.10198C3.91974 6.76619 3.82549 6.3912 3.82523 6.01025C3.82523 5.579 3.93773 5.18525 4.13982 4.84359C4.72086 5.55887 5.44592 6.14388 6.26787 6.5606C7.08981 6.97731 7.99025 7.21641 8.91065 7.26234C8.58357 5.68942 9.75857 4.4165 11.1711 4.4165C11.8377 4.4165 12.4377 4.69567 12.8606 5.14567C13.3836 5.04775 13.8836 4.85192 14.3294 4.58942C14.1565 5.12484 13.794 5.57692 13.3127 5.86234C13.7794 5.81234 14.2294 5.68317 14.6461 5.50192C14.3315 5.96442 13.9377 6.37484 13.4856 6.70192Z" fill="#AAAAAA"/>
</svg>
