<svg width="18" height="13" viewBox="0 0 18 13" fill="none" xmlns="http://www.w3.org/2000/svg">
<path d="M16.9857 2.11913C16.8908 1.74102 16.7048 1.39621 16.4463 1.1192C16.1877 0.842195 15.8657 0.642709 15.5125 0.540708C14.2123 0.166504 9.00023 0.166504 9.00023 0.166504C9.00023 0.166504 3.78818 0.166504 2.48796 0.538717C2.13457 0.640387 1.81241 0.839763 1.55382 1.11682C1.29522 1.39388 1.10931 1.73887 1.01474 2.11714C0.666901 3.51045 0.666901 6.4165 0.666901 6.4165C0.666901 6.4165 0.666901 9.32256 1.01474 10.7139C1.20634 11.4822 1.77181 12.0873 2.48796 12.2923C3.78818 12.6665 9.00023 12.6665 9.00023 12.6665C9.00023 12.6665 14.2123 12.6665 15.5125 12.2923C16.2305 12.0873 16.7941 11.4822 16.9857 10.7139C17.3336 9.32256 17.3336 6.4165 17.3336 6.4165C17.3336 6.4165 17.3336 3.51045 16.9857 2.11913ZM7.34473 9.0837V3.74931L11.6602 6.3966L7.34473 9.0837Z" fill="#AAAAAA"/>
</svg>
